<svg width="120" height="40" viewBox="0 0 120 40" fill="none" xmlns="http://www.w3.org/2000/svg">
  <!-- C Letter -->
  <path d="M10 8C4.5 8 0 12.5 0 18C0 23.5 4.5 28 10 28C13 28 15.5 26.5 17 24" stroke="currentColor" stroke-width="3" stroke-linecap="round" fill="none"/>
  
  <!-- Rounded Rectangle with lines -->
  <rect x="24" y="12" width="40" height="16" rx="8" fill="currentColor"/>
  <line x1="27" y1="16" x2="61" y2="16" stroke="white" stroke-width="1"/>
  <line x1="27" y1="18" x2="61" y2="18" stroke="white" stroke-width="1"/>
  <line x1="27" y1="20" x2="61" y2="20" stroke="white" stroke-width="1"/>
  <line x1="27" y1="22" x2="61" y2="22" stroke="white" stroke-width="1"/>
  <line x1="27" y1="24" x2="61" y2="24" stroke="white" stroke-width="1"/>
  
  <!-- "ovrit" text -->
  <path d="M70 22C70 18 72.5 15 76 15C79.5 15 82 18 82 22C82 26 79.5 29 76 29C72.5 29 70 26 70 22Z" fill="currentColor"/>
  <path d="M84 15L88 29L92 15" stroke="currentColor" stroke-width="2" stroke-linecap="round" fill="none"/>
  <line x1="96" y1="15" x2="96" y2="29" stroke="currentColor" stroke-width="2" stroke-linecap="round"/>
  <line x1="96" y1="20" x2="100" y2="20" stroke="currentColor" stroke-width="2" stroke-linecap="round"/>
  <circle cx="105" cy="27" r="2" fill="currentColor"/>
  <line x1="110" y1="15" x2="110" y2="24" stroke="currentColor" stroke-width="2" stroke-linecap="round"/>
  <line x1="108" y1="15" x2="112" y2="15" stroke="currentColor" stroke-width="2" stroke-linecap="round"/>
  <circle cx="118" cy="27" r="2" fill="currentColor"/>
</svg>
